<?xml version="1.0" encoding="utf-8"?>
<!-- Generator: Adobe Illustrator 23.0.1, SVG Export Plug-In . SVG Version: 6.00 Build 0)  -->
<svg version="1.1" id="Layer_1" xmlns="http://www.w3.org/2000/svg" xmlns:xlink="http://www.w3.org/1999/xlink" x="0px" y="0px"
	 viewBox="0 0 228.7 39.1" style="enable-background:new 0 0 228.7 39.1;" xml:space="preserve">
<style type="text/css">
	.st0{fill:#00DF3E;stroke:#FFFFFF;stroke-miterlimit:10;}
	.st1{fill:#007F60;stroke:#FFFFFF;stroke-miterlimit:10;}
	.st2{fill:#00B475;stroke:#FFFFFF;stroke-miterlimit:10;}
</style>
<g>
	<path class="st0" d="M90.7,26.3c0,8.2-5.9,12.4-12.6,12.4c-3.6,0-7-1.2-9.4-3.7c-1.8-1.8-1.5-5,0.7-6.4l0.3-0.2
		c1.4-0.9,3.3-0.8,4.5,0.5c0.9,1,2.2,1.5,4,1.5c3.3,0,4.7-1.9,4.7-4.1c0-2.3-1.4-4.1-4.7-4.1h-0.4c-1.6,0-3-1.1-3.6-2.7l0,0
		c-0.4-1.3-0.2-2.8,0.6-3.9l5-6.8h-9c-2.1,0-3.7-1.8-3.7-4l0,0c0-2.2,1.7-4,3.7-4h13.8c2.6,0,4.8,2.3,4.8,5.1l0,0
		c0,1.1-0.4,2.3-1,3.2l-5,6.8C87.6,17.5,90.7,21.1,90.7,26.3z"/>
	<path class="st1" d="M67,4.8c0,2.2,1.7,4,3.7,4h9c2.4-3.2,0.2-8-3.6-8h-5.4C68.7,0.8,67,2.6,67,4.8z"/>
	<path class="st2" d="M90.7,26.3c0-5.1-3.1-8.8-7.4-10.4c-1.3-0.4-2.5-0.6-3.6-0.7c-1.9-0.2-2.9-2.6-1.7-4.2h0l-3.4,4.6
		c-0.8,1.1-1,2.6-0.6,3.9c0.5,1.6,2,2.7,3.6,2.7h0.4c3.3,0,4.7,1.9,4.7,4.1c0,2.3-1.4,4.1-4.7,4.1c-1.8,0-3.1-0.5-4-1.5
		c-1.2-1.3-3.1-1.4-4.5-0.5l-0.3,0.2c-2.2,1.3-2.5,4.5-0.7,6.4c2.5,2.5,5.8,3.7,9.4,3.7C84.7,38.7,90.7,34.5,90.7,26.3z"/>
</g>
<g>
	<path class="st2" d="M159.6,27.7c0-7.9-5.9-9.8-11.2-11.5c-5.4-1.8-6.2-2.9-6.2-4.6c0-1.3,0.9-2.5,2.8-2.8h0
		c-8.8,0.6-10.2,10.6-3.8,13.1c0.1,0,0.2,0.1,0.2,0.1c0.1,0.1,0.3,0.1,0.5,0.2c0.8,0.3,1.7,0.6,2.5,0.9c1.1,0.3,2,0.6,2.8,0.9l0,0
		c0.1,0,0.1,0,0.2,0.1c0.4,0.1,0.7,0.3,1,0.4c8.6,3.2,10.6,9.7,6,12.7C157.6,35.2,159.6,32,159.6,27.7z"/>
	<path class="st1" d="M145,8.8L145,8.8c0.3,0,0.6-0.1,0.9-0.1c1.9,0,3.3,0.6,4.3,1.6c0.7,0.7,1.5,1.1,2.3,1.2c0.6,0.1,1.3,0,1.9-0.2
		c0.2-0.1,0.4-0.2,0.6-0.3l0,0c0.7-0.4,1.2-1.1,1.5-1.7c0.2-0.4,0.3-0.7,0.3-1.1c0.1-0.4,0.1-0.8,0-1.1c-0.1-0.9-0.5-1.8-1.2-2.6
		c-0.3-0.3-0.6-0.6-1-0.9c-2.4-2.1-5.4-3.1-8.8-3.1c-6,0-11.6,4.1-11.6,11.3c0,0.4,0,0.8,0.1,1.2c0,0.1,0,0.2,0,0.3
		c0,0.3,0.1,0.5,0.1,0.8c0,0.1,0,0.2,0.1,0.4c0.1,0.2,0.1,0.5,0.2,0.7c0,0.1,0.1,0.2,0.1,0.3c0.1,0.3,0.2,0.6,0.3,0.9
		c0,0.1,0.1,0.1,0.1,0.2c0.1,0.2,0.2,0.4,0.3,0.6c0.1,0.1,0.1,0.2,0.2,0.3c0.1,0.2,0.2,0.3,0.3,0.4c0.1,0.1,0.2,0.2,0.2,0.3
		c0.1,0.1,0.2,0.3,0.3,0.4c0.1,0.1,0.2,0.2,0.3,0.3c0.2,0.2,0.4,0.4,0.6,0.6c0.1,0.1,0.3,0.2,0.4,0.3c0.1,0.1,0.2,0.1,0.3,0.2
		c0.1,0.1,0.3,0.2,0.4,0.3c0.1,0.1,0.2,0.1,0.2,0.2c0.2,0.1,0.3,0.2,0.5,0.3c0,0,0.1,0,0.1,0c0.6,0.4,1.3,0.7,2,1c0,0,0,0,0,0
		C134.9,19.3,136.3,9.4,145,8.8z"/>
	<path class="st0" d="M148.5,24.4c0.1,0,0.2,0.1,0.3,0.1c0,0,0.1,0,0.1,0c0.5,0.2,1,0.5,1.4,0.7c0,0,0.1,0,0.1,0.1
		c0.4,0.2,0.6,0.5,0.9,0.8c0,0,0,0.1,0.1,0.1c0.2,0.3,0.3,0.6,0.4,0.9c0,0,0,0.1,0,0.1c0,0.2,0,0.3,0,0.5c0,1.4-0.9,3-4.7,3
		c-0.3,0-0.6,0-0.9,0c-0.6-0.1-1.2-0.2-1.7-0.3c-1.3-0.4-2.3-1.1-3.1-2.1c-1.1-1.2-2.7-1.6-4.1-1.1c-0.2,0.1-0.4,0.2-0.6,0.3
		l-0.1,0.1l-0.2,0.1c-1.3,0.8-2,2.2-2,3.7c0,0.9,0.3,1.7,0.9,2.5c2.5,3.2,6.4,5.1,11.7,5.1c0.6,0,1.2,0,1.7-0.1c0.1,0,0.3,0,0.4,0
		c0.5-0.1,1-0.1,1.5-0.2c0,0,0.1,0,0.1,0c1.1-0.3,2.2-0.6,3.2-1.1c0.3-0.1,0.6-0.3,0.8-0.5c0,0,0,0,0,0
		C159,34.1,157.1,27.6,148.5,24.4z"/>
</g>
<g>
	<path class="st1" d="M104.3,23.3C104.3,23.3,104.3,23.3,104.3,23.3c0,0,0-0.1,0-0.1c0-0.2-0.1-0.3-0.1-0.5l0,0c0,0,0,0.1,0,0.1
		c-0.2-0.9-0.3-1.9-0.3-2.9c0-6.5,3.8-10.8,9.7-10.8c1.2,0,2.3,0.2,3.3,0.6c-7.4-3.4-18.5-1.2-20.4,7.1c-0.1,1-0.2,2-0.2,3.1
		c0,10.7,7.3,18.9,17.4,18.9c4.4,0,8.4-1.7,11.4-4.6c-0.2,0.2-0.3,0.3-0.5,0.4C118.3,39,106.2,32.9,104.3,23.3z"/>
	<path class="st2" d="M116.9,9.6c0.8,0.3,1.5,0.7,2.1,1.1c0,0,0,0,0,0l0,0c0.2,0.2,0.5,0.4,0.7,0.6c0.1,0.1,0.3,0.3,0.5,0.4
		c0.6,0.4,1.4,0.7,2.1,0.7c0.2,0,0.4,0,0.5-0.1c0.2,0,0.4-0.1,0.5-0.2c0.2-0.1,0.4-0.2,0.5-0.3l0.4-0.3c0.4-0.2,0.7-0.5,0.9-0.9
		c0.4-0.5,0.7-1.2,0.8-1.8c0-0.1,0-0.1,0-0.2c0.1-0.9-0.1-1.7-0.5-2.5c-0.2-0.2-0.3-0.5-0.6-0.7c-2.6-2.5-6-4.1-9.7-4.5
		C114.7,1,114.2,1,113.6,1c-0.6,0-1.2,0-1.8,0.1c-0.2,0-0.4,0.1-0.6,0.1c-0.4,0-0.7,0.1-1.1,0.2c-0.2,0-0.5,0.1-0.7,0.2
		c-0.3,0.1-0.6,0.2-0.9,0.2c-0.2,0.1-0.5,0.2-0.7,0.2c-0.3,0.1-0.5,0.2-0.8,0.3c-0.3,0.1-0.5,0.2-0.7,0.3c-0.2,0.1-0.5,0.2-0.7,0.4
		c-0.3,0.1-0.5,0.3-0.8,0.4c-0.2,0.1-0.4,0.3-0.6,0.4c-0.3,0.2-0.5,0.4-0.8,0.5c-0.2,0.1-0.3,0.2-0.4,0.4c-0.3,0.2-0.6,0.5-0.8,0.7
		c-0.1,0.1-0.1,0.1-0.2,0.2c-2.2,2.1-3.8,4.7-4.7,7.8c0,0,0,0,0,0c-0.2,0.5-0.3,1.1-0.4,1.6c0,0,0,0,0,0c-0.1,0.5-0.2,1.1-0.3,1.7
		c0,0,0,0,0,0C98.4,8.4,109.4,6.3,116.9,9.6z"/>
	<path class="st0" d="M126.1,30.9c0-0.3-0.1-0.6-0.2-0.8c-0.3-0.8-0.8-1.6-1.6-2l-0.4-0.3c-0.3-0.2-0.7-0.4-1.1-0.4
		c-0.4-0.1-0.7-0.1-1.1,0c0,0-0.1,0-0.1,0c-0.7,0.1-1.4,0.5-1.9,1c-1.2,1.1-2.7,1.8-4.4,2.1c-0.6,0.1-1.1,0.2-1.7,0.2
		c-0.5,0-1.1,0-1.6-0.1c-0.1,0-0.2,0-0.3,0c-0.5-0.1-0.9-0.2-1.4-0.3c-0.1,0-0.2-0.1-0.2-0.1c-0.4-0.1-0.8-0.3-1.2-0.5
		c0,0-0.1,0-0.1-0.1c-0.4-0.2-0.8-0.5-1.1-0.7c-0.1-0.1-0.1-0.1-0.2-0.2c-0.3-0.3-0.7-0.6-1-0.9c0,0-0.1-0.1-0.1-0.1
		c-0.3-0.3-0.5-0.7-0.8-1.1c0-0.1-0.1-0.1-0.1-0.2c-0.2-0.4-0.5-0.8-0.6-1.3c0-0.1-0.1-0.2-0.1-0.2c-0.2-0.5-0.3-0.9-0.5-1.5
		c0,0,0,0,0,0c1.9,9.6,14,15.7,20.2,11.3c0.2-0.1,0.3-0.3,0.5-0.4c0.2-0.2,0.4-0.4,0.6-0.7c0.3-0.5,0.5-1.1,0.5-1.6
		C126.1,31.5,126.1,31.2,126.1,30.9z"/>
</g>
</svg>
